# xmcd
#
# Track frame offsets:
#	150
#	15300
#	37212
#	67897
#	93057
#	118012
#	138057
#	150767
#	166512
#	185252
#	204447
#	221887
#	237065
#
# Disc length: 3992 seconds
# Revision: 0
# Processed by: cddbd v1.5.2PL0 Copyright (c) Steve Scherf et al.
# Submitted via: dBpowerAMP V12.0
#
DISCID=950f960d
DTITLE=Dan Penn - Blue Nite Lounge
DYEAR=1998
DGENRE=Country
TTITLE0=Where You Gettin' It
TTITLE1=Lookin' for Love
TTITLE2=Superliner
TTITLE3=Hallelujah Louisiana
TTITLE4=Funky Folks
TTITLE5=You Don't Miss What You Never Had
TTITLE6=Goodbye London
TTITLE7=Not Enough Time to Change
TTITLE8=Down Around Birmingham
TTITLE9=Lemonade Man
TTITLE10=a Memphis Melody
TTITLE11=Holding on to God
TTITLE12=Rosemound Rain
EXTD=
EXTT0=
EXTT1=
EXTT2=
EXTT3=
EXTT4=
EXTT5=
EXTT6=
EXTT7=
EXTT8=
EXTT9=
EXTT10=
EXTT11=
EXTT12=
PLAYORDER=
